<svg width="575" height="290" viewBox="0 0 575 290" fill="none" xmlns="http://www.w3.org/2000/svg">
<g clip-path="url(#clip0_7752_2165)">
<path d="M575 24.91C573.44 12.15 563.97 1.98 551.91 0C499.05 0 76.18 0 23.32 0C10.11 2.17 0 14.16 0 28.61C0 51.84 0 237.64 0 260.86C0 276.86 12.37 289.83 27.64 289.83C79.63 289.83 495.6 289.83 547.59 289.83C561.65 289.83 573.26 278.82 575 264.57C575 216.64 575 48.87 575 24.91Z" fill="#F6C700"/>
<path d="M69.3496 58.2402H114.98V233.89H69.3496V58.2402Z" fill="black"/>
<path d="M201.199 139.15C197.279 112.38 195.099 97.4998 194.669 94.5298C192.759 80.1998 190.939 67.7298 189.199 57.0898C185.249 57.0898 165.539 57.0898 130.039 57.0898V232.74H170.009L170.149 116.76L186.969 232.74H215.439L231.389 114.18L231.539 232.74H271.379V57.0898H211.769L201.199 139.15Z" fill="black"/>
<path d="M346.71 93.6298C347.21 95.8698 347.47 100.95 347.47 108.89C347.47 115.7 347.47 170.18 347.47 176.99C347.47 188.68 346.71 195.84 345.2 198.48C343.68 201.12 339.64 202.43 333.09 202.43C333.09 190.9 333.09 98.6598 333.09 87.1298C338.06 87.1298 341.45 87.6598 343.25 88.6998C345.05 89.7498 346.21 91.3898 346.71 93.6298ZM367.32 230.95C372.75 229.76 377.31 227.66 381.01 224.67C384.7 221.67 387.29 217.52 388.77 212.21C390.26 206.91 391.14 196.38 391.14 180.63C391.14 174.47 391.14 125.12 391.14 118.95C391.14 102.33 390.49 91.1898 389.48 85.5298C388.46 79.8598 385.93 74.7098 381.88 70.0898C377.82 65.4698 371.9 62.1498 364.12 60.1298C356.33 58.1098 343.63 57.0898 321.54 57.0898C319.27 57.0898 307.93 57.0898 287.5 57.0898V232.74H342.78C355.52 232.34 363.7 231.75 367.32 230.95Z" fill="black"/>
<path d="M464.76 204.701C463.92 206.931 460.24 208.061 457.46 208.061C454.74 208.061 452.93 206.981 452.01 204.811C451.09 202.651 450.64 197.721 450.64 190.001C450.64 185.361 450.64 148.221 450.64 143.581C450.64 135.581 451.04 130.591 451.85 128.601C452.65 126.631 454.41 125.631 457.13 125.631C459.91 125.631 463.64 126.761 464.6 129.031C465.55 131.301 466.03 136.151 466.03 143.581C466.03 146.581 466.03 161.581 466.03 188.591C465.74 197.841 465.32 203.211 464.76 204.701ZM406.68 231.211H447.76C449.47 224.501 450.41 220.771 450.6 220.021C454.32 224.521 458.41 227.901 462.9 230.141C467.37 232.391 474.06 233.511 479.24 233.511C486.45 233.511 492.67 231.621 497.92 227.831C503.16 224.051 506.5 219.571 507.92 214.421C509.34 209.261 510.05 201.421 510.05 190.881C510.05 185.951 510.05 146.531 510.05 141.601C510.05 131.001 509.81 124.081 509.34 120.831C508.87 117.581 507.47 114.271 505.14 110.881C502.81 107.491 499.42 104.861 494.98 102.981C490.54 101.101 485.3 100.161 479.26 100.161C474.01 100.161 467.29 101.211 462.81 103.281C458.34 105.351 454.28 108.491 450.64 112.701C450.64 108.891 450.64 89.8505 450.64 55.5605H406.68V231.211Z" fill="black"/>
</g>
<defs>
<clipPath id="clip0_7752_2165">
<rect width="575" height="289.83" fill="white"/>
</clipPath>
</defs>
</svg>
