<svg width="30" height="33" viewBox="0 0 30 33" fill="none" xmlns="http://www.w3.org/2000/svg">
<path d="M19.9886 14.1823C21.4045 15.0103 21.4045 17.0784 19.9886 17.9064L10.0228 23.7342C8.60591 24.5627 6.83398 23.5281 6.83398 21.8721L6.83398 10.2166C6.83398 8.56068 8.60591 7.52602 10.0228 8.3546L19.9886 14.1823Z" fill="#FDFDFE"/>
<path d="M7.2809 0C8.51471 1.64448e-06 9.67681 0.306947 10.6951 0.848569C10.8464 0.935928 10.9922 1.02012 11.1328 1.10127C12.3578 1.80853 13.5946 2.52259 14.8222 3.23139C11.5259 1.32826 7.43348 3.56207 7.15986 7.2683C7.13756 7.46912 7.1416 7.67473 7.14954 7.87649C7.14954 12.4492 7.13323 17.0158 7.1313 21.5926C7.13065 23.1255 8.75708 24.0953 10.0969 23.3967C9.21871 23.9038 8.4572 24.3434 7.85952 24.6885C7.68875 24.7963 7.5127 24.9026 7.32765 24.9837C7.04028 25.1224 6.74822 25.2314 6.45442 25.3123L6.45438 25.3122C3.32679 26.1727 0.000390817 23.8457 0.000376833 20.3663C0.000375366 36.3454 0 11.8818 0 7.35198H0.000376833C0.000150469 7.32831 0 7.30462 0 7.2809C0 3.25977 3.25977 0 7.2809 0Z" fill="url(#paint0_linear_28_472)"/>
<path d="M28.8152 19.7125C28.1982 20.781 27.3514 21.634 26.3732 22.245C26.2219 22.3324 26.076 22.4166 25.9355 22.4977C24.7168 23.2034 23.4737 23.919 22.246 24.6278C25.5423 22.7247 25.654 18.0636 22.5811 15.9736C22.4184 15.8538 22.2383 15.7545 22.0596 15.6605C18.0995 13.3742 14.1529 11.0768 10.1902 8.78666C8.86304 8.01968 7.20992 8.94329 7.14501 10.4529C7.14499 9.43885 7.14498 8.55952 7.14498 7.86938C7.13703 7.66761 7.133 7.462 7.1553 7.26119C7.17879 6.94293 7.23044 6.63551 7.30733 6.34065L7.30742 6.34066C8.12598 3.20182 11.8044 1.48457 14.8177 3.22426C0.979411 -4.76527 22.1657 7.4662 26.0886 9.7311L26.0884 9.73143C26.109 9.74306 26.1296 9.75478 26.1502 9.76664C29.6326 11.7772 30.8257 16.2301 28.8152 19.7125Z" fill="url(#paint1_linear_28_472)"/>
<path d="M0.982954 28.4973C0.366051 27.4287 0.0508223 26.2689 0.0107422 25.1162C0.0107421 24.9415 0.0107429 24.7731 0.0107428 24.6108C0.0107428 23.2022 0.0107427 21.7682 0.0107431 20.3506C0.0107472 24.1568 3.99151 26.5841 7.33801 24.9679C7.52307 24.8868 7.69911 24.7805 7.86988 24.6728C11.83 22.3864 15.7929 20.1173 19.7575 17.8305C21.0853 17.0646 21.112 15.1712 19.8371 14.3602C20.7153 14.8672 21.4768 15.3068 22.0745 15.6519C22.2532 15.7459 22.4333 15.8452 22.5961 15.9649C22.8599 16.1444 23.1003 16.3429 23.3173 16.5569L23.3172 16.557C25.6262 18.8353 25.2742 22.8795 22.261 24.6192C36.0992 16.6297 14.9133 28.8618 10.9904 31.1267L10.9902 31.1264C10.9698 31.1384 10.9494 31.1504 10.9288 31.1623C7.44644 33.1728 2.99352 31.9797 0.982954 28.4973Z" fill="url(#paint2_linear_28_472)"/>
<defs>
<linearGradient id="paint0_linear_28_472" x1="3.68532" y1="-1.62116" x2="-4.3255" y2="22.4459" gradientUnits="userSpaceOnUse">
<stop stop-color="#6A64FF"/>
<stop offset="1" stop-color="#4920F0"/>
</linearGradient>
<linearGradient id="paint1_linear_28_472" x1="32.0168" y1="17.4093" x2="15.1796" y2="-1.56186" gradientUnits="userSpaceOnUse">
<stop stop-color="#6A64FF"/>
<stop offset="1" stop-color="#4920F0"/>
</linearGradient>
<linearGradient id="paint2_linear_28_472" x1="1.37677" y1="32.4217" x2="26.2249" y2="27.3257" gradientUnits="userSpaceOnUse">
<stop stop-color="#6A64FF"/>
<stop offset="1" stop-color="#4920F0"/>
</linearGradient>
</defs>
</svg>
