<svg width="560" height="714" viewBox="0 0 560 714" fill="none" xmlns="http://www.w3.org/2000/svg">
<path d="M427.715 276.759L469.69 318.273C491.65 339.906 522.065 366.625 533.29 395.51C569.91 472.1 533.44 564.085 457.265 598.86C419.385 616.15 389.92 613.04 349.88 613.025L279.99 612.99L280.035 665.045C280.04 673.645 280.16 682.38 279.76 690.785C279.54 695.44 274.605 699.53 270.985 698.7C264.034 697.105 252.373 688.515 246.401 684.715L213.334 663.685L194.112 651.335C191.611 649.74 186.232 646.545 184.076 644.835C182.187 643.985 171.535 636.9 169.31 635.475L136.196 614.285C114.511 600.74 92.923 587.045 71.432 573.195C61.703 567.04 51.8215 561.015 42.1355 554.8C40.0695 553.36 37.8195 552.005 36.669 549.69C34.256 544.83 36.246 540.525 40.618 537.685C48.559 532.53 56.6095 527.47 64.5745 522.31L128.911 481.175L164.549 458.355C168.912 455.56 179.01 448.745 183.048 446.77C198.393 435.625 216.029 425.42 232.149 415.095C243.109 408.08 256.399 398.395 267.522 392.625C269.165 391.775 270.645 391.24 272.51 391.48C274.9 391.785 277.825 393.625 278.985 395.78C281.28 400.05 279.985 465.545 279.985 475.58L420.555 475.615L300.19 357.445C305.73 353.855 311.415 350.27 317.03 346.79C354.11 323.837 390.57 299.572 427.715 276.759Z" fill="#5564FB"/>
<path d="M427.715 276.759L469.69 318.273C491.65 339.906 522.065 366.625 533.29 395.51C532.67 396.9 533.965 407.915 533.905 410.905C533.485 432.585 521.375 452.415 503.395 464.165C483.76 477.245 466.08 476.26 443.63 475.915C437.34 475.82 426.39 476.11 420.555 475.615L300.19 357.445C305.73 353.855 311.415 350.27 317.03 346.79C354.11 323.837 390.57 299.572 427.715 276.759Z" fill="#5942DE"/>
<path d="M280.02 101.045L279.975 49.681C279.97 41.07 279.84 32.4665 280.125 23.841C279.815 20.255 283.52 15.832 287.22 15.619C292.38 15.321 301.74 22.466 305.895 25.151L327.175 38.801C339.95 46.988 357.07 57.1115 369.16 65.621C402.045 85.8045 436.05 108.373 468.66 129.249L503.355 151.443C508.53 154.758 516.13 158.933 520.69 162.814C528.145 169.167 521.855 175.692 516.25 179.231C487.685 197.268 459.27 215.439 430.8 233.57L400.75 252.656C396.785 255.19 387.745 261.292 383.98 263.132C379.585 266.315 373.06 270.211 368.4 273.185L338.575 292.207C323.785 301.635 308.82 311.315 293.93 320.6C292.115 321.572 290.32 322.734 288.185 322.628C284.3 322.433 280.67 319.503 280.36 315.523C279.69 306.907 279.965 298.144 279.97 289.497L280.01 238.336C263.684 237.917 245.633 238.303 229.171 238.31L139.237 238.44C147.843 247.068 156.647 255.328 165.255 263.917C167.943 266.599 173.277 271.561 175.572 274.315C186.98 284.893 199.42 297.451 210.576 308.55C226.77 324.661 243.975 340.975 259.899 357.195C217.898 383.735 173.86 410.69 132.449 437.85C127.994 433.705 123.746 429.34 119.465 425.005C96.0255 401.255 71.403 378.395 48.479 354.175C43.0735 348.46 27.5815 325.002 25.806 317.984C16.964 297.225 12.4585 278.817 12.46 256.034C12.558 214.559 29.3145 174.864 58.965 145.864C84.6245 120.66 118.184 105.066 153.994 101.706C168.298 100.388 189.801 100.991 204.71 100.988L280.02 101.045Z" fill="#644CFA"/>
<path d="M27.2715 316.739C26.543 312.478 26.4035 308.89 26.3775 305.087C26.35 287.758 33.291 271.145 45.639 258.987C65.1575 239.548 84.32 238.385 109.564 238.397L139.238 238.44C147.844 247.068 156.648 255.328 165.256 263.917C167.944 266.599 173.277 271.561 175.573 274.315C186.98 284.893 199.42 297.451 210.576 308.549C226.771 324.66 243.975 340.975 259.9 357.195C217.899 383.735 173.861 410.69 132.45 437.85C127.995 433.705 123.746 429.34 119.466 425.005C96.0255 401.255 71.403 378.395 48.479 354.175C45.5265 351.053 39.5648 342.638 34.4726 334.5C32.3598 331.123 28 321 27.2715 316.739Z" fill="#5942DE"/>
</svg>
