<svg width="820" height="820" viewBox="0 0 820 820" fill="none" xmlns="http://www.w3.org/2000/svg">
<circle cx="410" cy="410" r="410" fill="#863BFF"/>
<path d="M405.523 68.079C405.693 68.0705 405.867 68.062 406.037 68.0535C466.749 66.8836 532.986 84.8563 578.245 126.966C597.145 144.549 611.267 168.675 611.975 194.683C613.407 247.275 552.405 281.769 515.015 309.139C501.369 318.935 488.617 329.919 476.905 341.963C458.709 360.978 444.162 385.332 445.574 412.621C450.407 483.589 532.595 516.049 578.617 559.063C656.499 631.847 582.733 707.17 508.147 734.737C476.286 746.514 450.716 751.279 416.41 751.995C404.47 752.038 391.476 751.806 379.51 750.544C331.498 745.48 282.032 727.359 245.765 694.813C226.082 677.148 210.084 652.845 209.181 625.695C207.408 572.334 268.414 538.53 305.438 511.048C320.531 499.844 333.492 489.276 346.3 475.587C363.558 457.14 376.848 432.763 375.187 406.735C370.728 336.866 290.354 304.981 245.546 263.741C226.079 245.823 210.142 226.091 209.057 198.642C208.068 173.612 220.007 151.294 236.571 133.416C268.31 99.1575 316.416 79.7416 361.679 71.9406C376.002 69.4719 391.017 68.5869 405.523 68.079Z" fill="#1A1433"/>
</svg>
