<svg width="36" height="36" viewBox="0 0 36 36" fill="none" xmlns="http://www.w3.org/2000/svg">
<g clip-path="url(#clip0_8_96)">
<circle cx="18" cy="18" r="18" fill="#863BFF"/>
<circle cx="18" cy="18" r="15.5" fill="#1A1433"/>
<path d="M17.9995 2.15381C26.8022 2.15381 33.9388 9.28968 33.939 18.0923C33.939 26.895 26.8023 34.0317 17.9995 34.0317C9.1969 34.0316 2.06104 26.8949 2.06104 18.0923C2.06122 9.28979 9.19702 2.15399 17.9995 2.15381ZM17.9995 2.76611C14.6512 2.76619 11.5539 3.83975 9.03271 5.66162C8.8992 5.77099 8.71879 5.93893 8.53467 6.17041C8.16976 6.62926 7.88946 7.18499 7.71533 7.76807C7.50243 8.48117 7.54157 9.20628 7.78271 9.90576C8.3674 11.6014 10.1478 12.9728 11.563 13.9751C12.7053 14.7841 14.0373 15.6267 14.7173 16.8921C14.9024 17.2338 15.0018 17.6158 15.0063 18.0044C15.0236 19.7806 12.9138 21.1345 11.6167 22.0591C9.18375 23.7934 6.35988 26.0319 8.17432 29.3364C8.51494 29.9296 8.84914 30.2718 9.3335 30.7349C11.7986 32.4279 14.7831 33.4194 17.9995 33.4194C21.2151 33.4194 24.1989 32.428 26.6636 30.7358C27.1308 30.2845 27.4784 29.9078 27.814 29.354C28.1627 28.8154 28.4102 27.9452 28.4097 27.3071C28.4091 26.7754 28.2531 26.2089 28.0269 25.7251C27.2275 24.0582 25.6386 22.9574 24.1655 21.9067C22.6613 20.8336 20.0839 19.0794 21.2788 16.8833C22.0503 15.466 23.8123 14.4622 25.0688 13.5034C25.6122 13.0888 26.1643 12.6624 26.6519 12.1792C28.0029 10.9039 28.5803 9.55818 28.3726 8.21143C28.2286 7.27832 27.8427 6.34838 26.7358 5.49854C24.2574 3.77608 21.2464 2.76611 17.9995 2.76611Z" fill="#863BFF"/>
</g>
<defs>
<clipPath id="clip0_8_96">
<rect width="36" height="36" fill="white"/>
</clipPath>
</defs>
</svg>
