<svg width="1000" height="1000" viewBox="0 0 1000 1000" fill="none" xmlns="http://www.w3.org/2000/svg">
<path d="M213.724 88.2378C213.695 88.4701 194.377 110.566 192.29 113.415C180.631 129.327 171.295 146.386 165.632 165.352C158.703 188.552 159.974 212.142 167.821 234.898C186.839 290.052 244.75 334.642 290.78 367.242C327.939 393.56 371.27 420.952 393.388 462.117C399.412 473.233 402.638 485.65 402.785 498.293C403.354 556.069 334.718 600.096 292.528 630.172C213.39 686.586 121.523 759.405 180.554 866.896C191.698 886.304 202.387 897.774 218.292 912.97C206.855 906.514 195.287 897.463 185.058 889.204C142.98 855.058 106.842 814.185 78.1053 768.252C4.71879 653.113 -15.9748 517.406 13.6379 384.701C36.4247 285.96 88.8072 196.522 163.787 128.34C177.427 115.822 198.292 98.0586 213.724 88.2378Z" fill="#863BFF"/>
<path d="M785.74 88.562C789.828 89.6684 802.55 99.6548 806.407 102.627C851.952 137.988 890.972 181.029 921.709 229.81C994.344 345.421 1017.41 485.387 985.704 618.182C962.194 716.011 909.711 804.467 835.108 871.99C818.925 886.649 800.86 901.63 782.297 913.163C797.608 898.385 808.391 885.546 819.361 867.439C830.703 849.92 838.738 821.642 838.721 800.889C838.704 783.59 833.643 765.177 826.281 749.439C800.283 695.207 748.603 659.405 700.683 625.225C651.756 590.322 567.908 533.264 606.782 461.829C631.875 415.727 689.204 383.093 730.074 351.905C747.749 338.418 765.707 324.559 781.567 308.838C856.255 238.336 858.2 161.217 785.74 88.562Z" fill="#863BFF"/>
</svg>
