<svg width="481" height="290" viewBox="0 0 481 290" fill="none" xmlns="http://www.w3.org/2000/svg">
<g clip-path="url(#clip0_7752_2192)">
<path d="M481 24.9246C479.695 12.1571 471.773 1.98116 461.685 0C417.466 0 63.7262 0 19.5077 0C8.45723 2.17127 0 14.1683 0 28.6268C0 51.8704 0 237.779 0 261.013C0 277.022 10.3478 290 23.1215 290C66.6122 290 414.58 290 458.071 290C469.832 290 479.544 278.984 481 264.725C481 216.767 481 48.8987 481 24.9246Z" fill="#1D2626"/>
<path d="M60.3984 64.5351C60.3984 52.5023 71.2532 44.2561 84.0433 46.1073L251.24 67.9851C258.729 69.0789 264.703 77.1569 264.703 85.9921V108.796C250.651 118.22 241.395 134.039 241.395 151.878C241.395 169.969 250.399 185.62 264.703 194.96V204.974C264.703 213.809 258.729 221.887 251.24 222.981L102.892 243.344C90.1017 245.195 79.247 236.949 79.247 224.916L60.3984 64.5351ZM132.511 85.4873H110.465V114.349H96.4968V131.01H110.465V163.069C109.792 183.264 117.701 192.268 135.961 192.436H152.958V175.775H144.207C134.362 175.27 132.174 172.409 132.511 159.451V131.094H159.606L184.681 192.52H208.41L242.994 114.433H219.601L197.219 168.202L176.856 114.433H132.595L132.511 85.4873Z" fill="#6CD591"/>
<path d="M384.947 112.749C399.251 112.749 408.76 116.283 415.996 124.276C421.886 130.672 425 140.18 425 150.782C425 166.181 418.773 178.214 407.413 185.114C400.009 189.573 393.614 190.92 379.141 190.92H343.295V83.8867H365.341V112.749H384.947ZM365.341 174.259H381.665C394.623 174.259 402.533 165.592 402.533 151.455C402.533 136.73 395.633 129.493 381.665 129.493H365.341V174.259ZM309.468 83.8867H331.514V190.835H293.481C277.998 190.835 270.593 188.563 262.683 181.664C254.606 174.427 250.482 164.161 250.482 151.203C250.482 137.74 254.942 127.474 264.282 119.901C270.172 115.105 278.25 112.664 288.6 112.664H309.3L309.468 83.8867ZM309.468 129.493H293.481C280.691 129.493 272.949 137.656 272.949 151.287C272.949 165.592 280.859 174.259 293.481 174.259H309.468V129.493Z" fill="white"/>
</g>
<defs>
<clipPath id="clip0_7752_2192">
<rect width="481" height="290" fill="white"/>
</clipPath>
</defs>
</svg>
