<svg width="18" height="19" viewBox="0 0 18 19" fill="none" xmlns="http://www.w3.org/2000/svg">
<path d="M10.1663 3.11105C10.9387 3.11105 11.5746 3.69471 11.6573 4.44499L11.6571 4.44401L12.833 4.44439C13.6614 4.44439 14.333 5.11596 14.333 5.94439V10.4444H13.333V5.94439C13.333 5.66825 13.1091 5.44439 12.833 5.44439L11.4137 5.44452C11.1445 5.84645 10.6863 6.11105 10.1663 6.11105H7.83301C7.31299 6.11105 6.85477 5.84643 6.58567 5.44449L5.16634 5.44439C4.8902 5.44439 4.66634 5.66825 4.66634 5.94439V10.4444H3.66634V5.94439C3.66634 5.11596 4.33791 4.44439 5.16634 4.44439L6.3422 4.44401C6.42528 3.6942 7.06104 3.11105 7.83301 3.11105H10.1663ZM11.6629 4.50835L11.6663 4.61105C11.6663 4.57653 11.6652 4.54229 11.6629 4.50835ZM10.1663 4.11105H7.83301C7.55687 4.11105 7.33301 4.33491 7.33301 4.61105C7.33301 4.88719 7.55687 5.11105 7.83301 5.11105H10.1663C10.4425 5.11105 10.6663 4.88719 10.6663 4.61105C10.6663 4.33491 10.4425 4.11105 10.1663 4.11105ZM13.333 12.7777H14.333V14.9444C14.333 15.7728 13.6614 16.4444 12.833 16.4444H5.16634C4.33791 16.4444 3.66634 15.7728 3.66634 14.9444V12.7777H4.66634V14.9444C4.66634 15.2205 4.8902 15.4444 5.16634 15.4444H12.833C13.1091 15.4444 13.333 15.2205 13.333 14.9444V12.7777ZM8.31267 7.46995C8.25474 7.27281 8.08201 7.13123 7.87734 7.113C7.67267 7.09478 7.47769 7.20363 7.38579 7.38743L5.52399 11.1111H2.83301C2.55687 11.1111 2.33301 11.3349 2.33301 11.6111C2.33301 11.8872 2.55687 12.1111 2.83301 12.1111H5.83301C6.02239 12.1111 6.19553 12.0041 6.28022 11.8347L7.71187 8.97125L9.02001 13.4188C9.07794 13.6159 9.25067 13.7575 9.45534 13.7757C9.66001 13.7939 9.85501 13.6851 9.94687 13.5013L11.2062 10.9827L11.7376 11.8683C11.8279 12.0189 11.9907 12.1111 12.1663 12.1111H15.1663C15.4425 12.1111 15.6663 11.8872 15.6663 11.6111C15.6663 11.3349 15.4425 11.1111 15.1663 11.1111H12.4494L11.5951 9.68712C11.5012 9.53065 11.3295 9.43772 11.1471 9.44472C10.9648 9.45172 10.8007 9.55752 10.7191 9.72079L9.62081 11.9175L8.31267 7.46995Z" fill="#C8BFDF"/>
</svg>
