<svg preserveAspectRatio="none" width="100%" height="100%" overflow="visible" style="display: block;" viewBox="0 0 18.75 18" fill="none" xmlns="http://www.w3.org/2000/svg">
<g id="iconstack.io - (Dashboard Square 1)">
<path id="Vector" fill-rule="evenodd" clip-rule="evenodd" d="M4.20264 2.4375C3.27066 2.4375 2.51514 3.19302 2.51514 4.125V6.74998C2.51514 7.68195 3.27065 8.4375 4.20264 8.4375H6.82764C7.75965 8.4375 8.51512 7.68195 8.51512 6.74998V4.125C8.51512 3.19302 7.75965 2.4375 6.82764 2.4375H4.20264ZM3.64014 4.125C3.64014 3.81434 3.89197 3.5625 4.20264 3.5625H6.82764C7.13829 3.5625 7.39014 3.81434 7.39014 4.125V6.74998C7.39014 7.06064 7.13829 7.31248 6.82764 7.31248H4.20264C3.89197 7.31248 3.64014 7.06064 3.64014 6.74998V4.125Z" fill="var(--fill-0, #6860FE)"/>
<path id="Vector_2" fill-rule="evenodd" clip-rule="evenodd" d="M4.20264 9.5625C3.27066 9.5625 2.51514 10.3181 2.51514 11.25V13.875C2.51514 14.8069 3.27065 15.5625 4.20264 15.5625H6.82764C7.75965 15.5625 8.51512 14.8069 8.51512 13.875V11.25C8.51512 10.3181 7.75965 9.5625 6.82764 9.5625H4.20264ZM3.64014 11.25C3.64014 10.9393 3.89197 10.6875 4.20264 10.6875H6.82764C7.13829 10.6875 7.39014 10.9393 7.39014 11.25V13.875C7.39014 14.1857 7.13829 14.4375 6.82764 14.4375H4.20264C3.89197 14.4375 3.64014 14.1857 3.64014 13.875V11.25Z" fill="var(--fill-0, #6860FE)"/>
<path id="Vector_3" fill-rule="evenodd" clip-rule="evenodd" d="M9.64014 4.125C9.64014 3.19302 10.3957 2.4375 11.3276 2.4375H13.9526C14.8847 2.4375 15.6401 3.19302 15.6401 4.125V6.74998C15.6401 7.68195 14.8847 8.4375 13.9526 8.4375H11.3276C10.3957 8.4375 9.64014 7.68195 9.64014 6.74998V4.125ZM11.3276 3.5625C11.017 3.5625 10.7651 3.81434 10.7651 4.125V6.74998C10.7651 7.06064 11.017 7.31248 11.3276 7.31248H13.9526C14.2633 7.31248 14.5151 7.06064 14.5151 6.74998V4.125C14.5151 3.81434 14.2633 3.5625 13.9526 3.5625H11.3276Z" fill="var(--fill-0, #6860FE)"/>
<path id="Vector_4" fill-rule="evenodd" clip-rule="evenodd" d="M11.3276 9.5625C10.3957 9.5625 9.64014 10.3181 9.64014 11.25V13.875C9.64014 14.8069 10.3957 15.5625 11.3276 15.5625H13.9526C14.8847 15.5625 15.6401 14.8069 15.6401 13.875V11.25C15.6401 10.3181 14.8847 9.5625 13.9526 9.5625H11.3276ZM10.7651 11.25C10.7651 10.9393 11.017 10.6875 11.3276 10.6875H13.9526C14.2633 10.6875 14.5151 10.9393 14.5151 11.25V13.875C14.5151 14.1857 14.2633 14.4375 13.9526 14.4375H11.3276C11.017 14.4375 10.7651 14.1857 10.7651 13.875V11.25Z" fill="var(--fill-0, #6860FE)"/>
</g>
</svg>
