<svg preserveAspectRatio="none" width="100%" height="100%" overflow="visible" style="display: block;" viewBox="0 0 18 18" fill="none" xmlns="http://www.w3.org/2000/svg">
<g id="iconstack.io - (Dashboard)">
<path id="Vector" d="M7.5 9.75C7.5 10.1478 7.65804 10.5294 7.93934 10.8107C8.22064 11.092 8.60218 11.25 9 11.25C9.39782 11.25 9.77936 11.092 10.0607 10.8107C10.342 10.5294 10.5 10.1478 10.5 9.75C10.5 9.35218 10.342 8.97064 10.0607 8.68934C9.77936 8.40804 9.39782 8.25 9 8.25C8.60218 8.25 8.22064 8.40804 7.93934 8.68934C7.65804 8.97064 7.5 9.35218 7.5 9.75Z" stroke="var(--stroke-0, #827B9A)" stroke-linecap="round" stroke-linejoin="round"/>
<path id="Vector_2" d="M10.0876 8.6625L11.6251 7.125" stroke="var(--stroke-0, #827B9A)" stroke-linecap="round" stroke-linejoin="round"/>
<path id="Vector_3" d="M4.8 15C3.70361 14.1285 2.90543 12.9376 2.51608 11.5923C2.12673 10.247 2.16549 8.81389 2.62698 7.49158C3.08848 6.16928 3.94985 5.02326 5.09174 4.21235C6.23363 3.40144 7.59947 2.96581 9 2.96581C10.4005 2.96581 11.7664 3.40144 12.9083 4.21235C14.0501 5.02326 14.9115 6.16928 15.373 7.49158C15.8345 8.81389 15.8733 10.247 15.4839 11.5923C15.0946 12.9376 14.2964 14.1285 13.2 15H4.8Z" stroke="var(--stroke-0, #827B9A)" stroke-linecap="round" stroke-linejoin="round"/>
</g>
</svg>
