<svg width="18" height="18" viewBox="0 0 18 18" fill="none" xmlns="http://www.w3.org/2000/svg">
<path d="M7.12402 5.99408V9.36573M7.12402 9.36573V10.4896C7.12402 12.6088 7.12402 13.6684 7.78285 14.3268C8.40165 14.9451 9.37469 14.9828 11.2479 14.985M7.12402 9.36573H11.2479" stroke="#C8BFDF" stroke-width="1.125" stroke-linecap="round" stroke-linejoin="round"/>
<path d="M5.99958 1.49854H8.24895C9.60997 1.49854 9.74852 2.33016 9.74852 3.7463C9.74852 5.16245 9.60997 5.99407 8.24895 5.99407H5.99958C4.63856 5.99407 4.5 5.16245 4.5 3.7463C4.5 2.33016 4.63856 1.49854 5.99958 1.49854Z" stroke="#C8BFDF" stroke-width="1.125"/>
<path d="M11.248 9.36619C11.248 8.65976 11.248 8.30659 11.4677 8.08706C11.6873 7.86761 12.0407 7.86761 12.7477 7.86761C13.4545 7.86761 13.808 7.86761 14.0276 8.08706C14.2472 8.30659 14.2472 8.65976 14.2472 9.36619C14.2472 10.0725 14.2472 10.4258 14.0276 10.6452C13.808 10.8647 13.4545 10.8647 12.7477 10.8647C12.0407 10.8647 11.6873 10.8647 11.4677 10.6452C11.248 10.4258 11.248 10.0725 11.248 9.36619Z" stroke="#C8BFDF" stroke-width="1.125"/>
<path d="M11.248 14.9853C11.248 14.279 11.248 13.9257 11.4677 13.7063C11.6873 13.4868 12.0407 13.4868 12.7477 13.4868C13.4545 13.4868 13.808 13.4868 14.0276 13.7063C14.2472 13.9257 14.2472 14.279 14.2472 14.9853C14.2472 15.6917 14.2472 16.0449 14.0276 16.2644C13.808 16.4839 13.4545 16.4839 12.7477 16.4839C12.0407 16.4839 11.6873 16.4839 11.4677 16.2644C11.248 16.0449 11.248 15.6917 11.248 14.9853Z" stroke="#C8BFDF" stroke-width="1.125"/>
</svg>
