<svg preserveAspectRatio="none" width="100%" height="100%" overflow="visible" style="display: block;" viewBox="0 0 18 18" fill="none" xmlns="http://www.w3.org/2000/svg">
<g id="iconstack.io - (Search)">
<path id="Vector" d="M3 7.80552C3 8.41836 3.12071 9.02519 3.35523 9.59138C3.58975 10.1576 3.93349 10.672 4.36683 11.1054C4.80017 11.5387 5.31462 11.8824 5.88081 12.117C6.447 12.3515 7.05383 12.4722 7.66667 12.4722C8.2795 12.4722 8.88634 12.3515 9.45252 12.117C10.0187 11.8824 10.5332 11.5387 10.9665 11.1054C11.3998 10.672 11.7436 10.1576 11.9781 9.59138C12.2126 9.02519 12.3333 8.41836 12.3333 7.80552C12.3333 7.19269 12.2126 6.58585 11.9781 6.01967C11.7436 5.45348 11.3998 4.93903 10.9665 4.50569C10.5332 4.07235 10.0187 3.72861 9.45252 3.49408C8.88634 3.25956 8.2795 3.13885 7.66667 3.13885C7.05383 3.13885 6.447 3.25956 5.88081 3.49408C5.31462 3.72861 4.80017 4.07235 4.36683 4.50569C3.93349 4.93903 3.58975 5.45348 3.35523 6.01967C3.12071 6.58585 3 7.19269 3 7.80552Z" stroke="var(--stroke-0, #827B9A)" stroke-linecap="round" stroke-linejoin="round"/>
<path id="Vector_2" d="M15 15.1389L11 11.1389" stroke="var(--stroke-0, #827B9A)" stroke-linecap="round" stroke-linejoin="round"/>
</g>
</svg>
