<svg preserveAspectRatio="none" width="100%" height="100%" overflow="visible" style="display: block;" viewBox="0 0 18 18" fill="none" xmlns="http://www.w3.org/2000/svg">
<g id="iconstack.io - (Settings 05)">
<path id="Vector" d="M1.875 9C1.875 5.64124 1.875 3.96187 2.91843 2.91843C3.96187 1.875 5.64124 1.875 9 1.875C12.3587 1.875 14.0381 1.875 15.0816 2.91843C16.125 3.96187 16.125 5.64124 16.125 9C16.125 12.3587 16.125 14.0381 15.0816 15.0816C14.0381 16.125 12.3587 16.125 9 16.125C5.64124 16.125 3.96187 16.125 2.91843 15.0816C1.875 14.0381 1.875 12.3587 1.875 9Z" stroke="var(--stroke-0, #827B9A)" stroke-linejoin="round"/>
<path id="Vector_2" d="M6.375 7.5C5.75368 7.5 5.25 6.99632 5.25 6.375C5.25 5.75368 5.75368 5.25 6.375 5.25C6.99632 5.25 7.5 5.75368 7.5 6.375C7.5 6.99632 6.99632 7.5 6.375 7.5Z" stroke="var(--stroke-0, #827B9A)"/>
<path id="Vector_3" d="M11.625 12.75C12.2463 12.75 12.75 12.2463 12.75 11.625C12.75 11.0037 12.2463 10.5 11.625 10.5C11.0037 10.5 10.5 11.0037 10.5 11.625C10.5 12.2463 11.0037 12.75 11.625 12.75Z" stroke="var(--stroke-0, #827B9A)"/>
<path id="Vector_4" d="M7.5 6.375H12.75" stroke="var(--stroke-0, #827B9A)" stroke-linecap="round"/>
<path id="Vector_5" d="M10.5 11.625H5.25" stroke="var(--stroke-0, #827B9A)" stroke-linecap="round"/>
</g>
</svg>
