<svg width="160" height="33" viewBox="0 0 160 33" fill="none" xmlns="http://www.w3.org/2000/svg">
<path d="M19.9886 14.1823C21.4045 15.0103 21.4045 17.0784 19.9886 17.9064L10.0228 23.7342C8.60591 24.5627 6.83398 23.5281 6.83398 21.8721L6.83398 10.2166C6.83398 8.56068 8.60591 7.52602 10.0228 8.3546L19.9886 14.1823Z" fill="#FDFDFE"/>
<path d="M7.2809 0C8.51471 1.64448e-06 9.67681 0.306947 10.6951 0.848569C10.8464 0.935928 10.9922 1.02012 11.1328 1.10127C12.3578 1.80853 13.5946 2.52259 14.8222 3.23139C11.5259 1.32826 7.43348 3.56207 7.15986 7.2683C7.13756 7.46912 7.1416 7.67473 7.14954 7.87649C7.14954 12.4492 7.13323 17.0158 7.1313 21.5926C7.13065 23.1255 8.75708 24.0953 10.0969 23.3967C9.21871 23.9038 8.4572 24.3434 7.85952 24.6885C7.68875 24.7963 7.5127 24.9026 7.32765 24.9837C7.04028 25.1224 6.74822 25.2314 6.45442 25.3123L6.45438 25.3122C3.32679 26.1727 0.000390817 23.8457 0.000376833 20.3663C0.000375366 36.3454 0 11.8818 0 7.35198H0.000376833C0.000150469 7.32831 0 7.30462 0 7.2809C0 3.25977 3.25977 0 7.2809 0Z" fill="url(#paint0_linear_28_471)"/>
<path d="M28.8152 19.7125C28.1982 20.781 27.3514 21.634 26.3732 22.245C26.2219 22.3324 26.076 22.4166 25.9355 22.4977C24.7168 23.2034 23.4737 23.919 22.246 24.6278C25.5423 22.7247 25.654 18.0636 22.5811 15.9736C22.4184 15.8538 22.2383 15.7545 22.0596 15.6605C18.0995 13.3742 14.1529 11.0768 10.1902 8.78666C8.86304 8.01968 7.20992 8.94329 7.14501 10.4529C7.14499 9.43885 7.14498 8.55952 7.14498 7.86938C7.13703 7.66761 7.133 7.462 7.1553 7.26119C7.17879 6.94293 7.23044 6.63551 7.30733 6.34065L7.30742 6.34066C8.12598 3.20182 11.8044 1.48457 14.8177 3.22426C0.979411 -4.76527 22.1657 7.4662 26.0886 9.7311L26.0884 9.73143C26.109 9.74306 26.1296 9.75478 26.1502 9.76664C29.6326 11.7772 30.8257 16.2301 28.8152 19.7125Z" fill="url(#paint1_linear_28_471)"/>
<path d="M0.982954 28.4973C0.366051 27.4287 0.0508223 26.2689 0.0107422 25.1162C0.0107421 24.9415 0.0107429 24.7731 0.0107428 24.6108C0.0107428 23.2022 0.0107427 21.7682 0.0107431 20.3506C0.0107472 24.1568 3.99151 26.5841 7.33801 24.9679C7.52307 24.8868 7.69911 24.7805 7.86988 24.6728C11.83 22.3864 15.7929 20.1173 19.7575 17.8305C21.0853 17.0646 21.112 15.1712 19.8371 14.3602C20.7153 14.8672 21.4768 15.3068 22.0745 15.6519C22.2532 15.7459 22.4333 15.8452 22.5961 15.9649C22.8599 16.1444 23.1003 16.3429 23.3173 16.5569L23.3172 16.557C25.6262 18.8353 25.2742 22.8795 22.261 24.6192C36.0992 16.6297 14.9133 28.8618 10.9904 31.1267L10.9902 31.1264C10.9698 31.1384 10.9494 31.1504 10.9288 31.1623C7.44644 33.1728 2.99352 31.9797 0.982954 28.4973Z" fill="url(#paint2_linear_28_471)"/>
<path d="M152.253 17.3748C152.253 16.3379 152.216 15.4307 152.141 14.653C152.086 13.8568 151.984 13.1717 151.836 12.5978L153.78 12.2089L154.641 14.8474L154.697 15.0696V26.4845H152.253V17.3748ZM153.363 15.514C154.049 14.3475 154.873 13.4865 155.835 12.931C156.798 12.3571 157.789 12.0701 158.807 12.0701C159.196 12.0701 159.594 12.1256 160.001 12.2367V13.9031L159.696 14.2086C159.326 14.1531 158.937 14.1253 158.529 14.1253C157.678 14.1253 156.872 14.2734 156.113 14.5697C155.372 14.8659 154.826 15.2918 154.474 15.8473L153.363 15.514Z" fill="#11111a"/>
<path d="M141.703 17.3748C141.703 16.3379 141.666 15.4307 141.592 14.653C141.536 13.8568 141.434 13.1717 141.286 12.5978L143.23 12.2089L144.091 14.8474L144.147 15.0696V26.4845H141.703V17.3748ZM142.814 15.514C143.499 14.3475 144.323 13.4865 145.286 12.931C146.248 12.3571 147.239 12.0701 148.257 12.0701C148.646 12.0701 149.044 12.1256 149.452 12.2367V13.9031L149.146 14.2086C148.776 14.1531 148.387 14.1253 147.98 14.1253C147.128 14.1253 146.322 14.2734 145.563 14.5697C144.823 14.8659 144.276 15.2918 143.925 15.8473L142.814 15.514Z" fill="#11111a"/>
<path d="M133.007 26.8177C130.693 26.8177 128.906 26.1974 127.647 24.9569C126.406 23.6978 125.786 21.8278 125.786 19.3467C125.786 17.8839 126.045 16.5971 126.564 15.4861C127.082 14.3752 127.841 13.5142 128.841 12.9032C129.841 12.2922 131.063 11.9867 132.507 11.9867C134.396 11.9867 135.84 12.4959 136.84 13.5142C137.84 14.5326 138.34 16.0046 138.34 17.9302V20.5409H128.314V18.4857H135.951L135.229 19.0134V17.9858C135.229 16.8193 134.988 15.949 134.507 15.3751C134.044 14.7826 133.35 14.4863 132.424 14.4863C131.387 14.4863 130.572 14.9029 129.98 15.7361C129.406 16.5693 129.119 17.671 129.119 19.0412V19.8744C129.156 21.3741 129.554 22.4851 130.313 23.2072C131.072 23.9108 132.165 24.2626 133.59 24.2626C134.998 24.2626 136.303 24.1052 137.507 23.7904L137.923 24.0959V26.2623C137.257 26.4474 136.507 26.5863 135.673 26.6789C134.84 26.7714 133.952 26.8177 133.007 26.8177Z" fill="#11111a"/>
<path d="M112.132 26.4844V5.23773H115.437V26.4844H112.132ZM113.632 21.4852L120.936 12.3477H124.13V13.0143L118.853 19.2356L118.131 19.5411L113.937 23.6238L113.632 21.4852ZM119.297 17.5691L125.13 25.7901V26.4844H121.63L116.798 19.43L119.297 17.5691Z" fill="#11111a"/>
<path d="M99.9381 26.4844H95.7721V17.4858C95.7721 16.5786 95.735 15.7269 95.661 14.9307C95.6054 14.1345 95.5036 13.3754 95.3555 12.6533L98.5494 12.0145L99.9381 15.4584V26.4844ZM98.4106 14.6252C99.1512 13.6809 99.9751 12.9958 100.882 12.5699C101.808 12.1441 102.762 11.9312 103.743 11.9312C105.409 11.9312 106.669 12.3755 107.52 13.2643C108.372 14.153 108.798 15.4954 108.798 17.2914V26.4844H104.604V17.6525C104.604 16.8378 104.428 16.2638 104.076 15.9305C103.725 15.5787 103.16 15.4028 102.382 15.4028C101.956 15.4028 101.484 15.4676 100.966 15.5972C100.447 15.7083 100.003 15.875 99.6326 16.0972L98.4106 14.6252Z" fill="#11111a"/>
<path d="M88.3934 12.2922H92.5594V26.4845H88.3934V12.2922ZM90.4486 10.4592C89.6895 10.4592 89.0599 10.237 88.56 9.79262C88.0786 9.32973 87.8379 8.71871 87.8379 7.95957C87.8379 7.21895 88.0786 6.61719 88.56 6.1543C89.0599 5.69141 89.6895 5.45996 90.4486 5.45996C91.2263 5.45996 91.8558 5.69141 92.3372 6.1543C92.8371 6.61719 93.0871 7.21895 93.0871 7.95957C93.0871 8.7002 92.8371 9.30196 92.3372 9.76485C91.8558 10.2277 91.2263 10.4592 90.4486 10.4592Z" fill="#11111a"/>
<path d="M76.0483 17.5969C76.0483 16.7823 76.0113 15.9676 75.9372 15.1529C75.8632 14.3382 75.7428 13.5142 75.5762 12.681L79.4922 11.9312L80.6309 14.4863L81.1864 15.5695V26.4845H76.0483V17.5969ZM79.1589 15.6806C79.8811 14.4215 80.6772 13.468 81.5475 12.8199C82.4362 12.1719 83.4361 11.8478 84.547 11.8478C85.1395 11.8478 85.7135 11.9219 86.269 12.07V15.8194L85.7413 16.3749C85.1302 16.1898 84.4637 16.0972 83.7416 16.0972C83.1676 16.0972 82.6121 16.1712 82.0752 16.3194C81.5382 16.4675 81.1216 16.6712 80.8254 16.9304L79.1589 15.6806Z" fill="#11111a"/>
<path d="M59.7178 5.23773H64.8836V26.4844H59.7178V5.23773ZM63.0228 14.764C63.782 13.7272 64.6152 12.9865 65.5224 12.5422C66.4297 12.0793 67.374 11.8478 68.3553 11.8478C70.0402 11.8478 71.3086 12.3107 72.1603 13.2365C73.0305 14.1438 73.4656 15.5139 73.4656 17.347V26.4844H68.3275V17.7913C68.3275 17.1433 68.1887 16.6989 67.9109 16.4582C67.6517 16.2175 67.2073 16.0972 66.5778 16.0972C66.2631 16.0972 65.9113 16.1342 65.5224 16.2082C65.1521 16.2823 64.8188 16.3934 64.5226 16.5415L63.0228 14.764Z" fill="#11111a"/>
<path d="M56.393 13.5698C55.6339 13.2735 54.884 13.0421 54.1434 12.8754C53.4027 12.7088 52.7269 12.6255 52.1159 12.6255C51.616 12.6255 51.2272 12.7088 50.9494 12.8754C50.6902 13.0421 50.5606 13.2828 50.5606 13.5976C50.5606 13.8012 50.6439 13.9864 50.8106 14.153C50.9772 14.3011 51.2086 14.4308 51.5049 14.5418C51.8011 14.6529 52.1622 14.7733 52.5881 14.9029C53.5879 15.2177 54.4304 15.551 55.1154 15.9027C55.819 16.2545 56.43 16.8193 56.9485 17.5969C57.4854 18.3746 57.7539 19.4022 57.7539 20.6798C57.7539 22.661 57.0318 24.1978 55.5876 25.2902C54.1434 26.3641 52.1159 26.901 49.5052 26.901C48.6164 26.901 47.6814 26.8362 46.7001 26.7066C45.7188 26.577 44.7745 26.3733 43.8672 26.0956V21.7352L44.5893 21.2075C45.3299 21.5037 46.1354 21.7444 47.0056 21.9296C47.8943 22.0962 48.6998 22.1796 49.4219 22.1796C49.9773 22.1796 50.4032 22.0962 50.6995 21.9296C50.9957 21.7629 51.1438 21.513 51.1438 21.1797C51.1438 20.939 51.0513 20.7353 50.8661 20.5687C50.6809 20.402 50.431 20.2632 50.1162 20.1521C49.82 20.0225 49.4497 19.8836 49.0053 19.7355C48.0054 19.4207 47.163 19.0967 46.4779 18.7634C45.7928 18.4116 45.2003 17.8561 44.7004 17.097C44.2005 16.3379 43.9505 15.3473 43.9505 14.1252C43.9505 12.1996 44.6448 10.6813 46.0335 9.5704C47.4222 8.45946 49.3848 7.90399 51.9215 7.90399C52.7917 7.90399 53.6805 7.98731 54.5877 8.15395C55.5135 8.30208 56.356 8.49649 57.1151 8.73719V13.0421L56.393 13.5698Z" fill="#11111a"/>
<defs>
<linearGradient id="paint0_linear_28_471" x1="3.68532" y1="-1.62116" x2="-4.3255" y2="22.4459" gradientUnits="userSpaceOnUse">
<stop stop-color="#6A64FF"/>
<stop offset="1" stop-color="#4920F0"/>
</linearGradient>
<linearGradient id="paint1_linear_28_471" x1="32.0168" y1="17.4093" x2="15.1796" y2="-1.56186" gradientUnits="userSpaceOnUse">
<stop stop-color="#6A64FF"/>
<stop offset="1" stop-color="#4920F0"/>
</linearGradient>
<linearGradient id="paint2_linear_28_471" x1="1.37677" y1="32.4217" x2="26.2249" y2="27.3257" gradientUnits="userSpaceOnUse">
<stop stop-color="#6A64FF"/>
<stop offset="1" stop-color="#4920F0"/>
</linearGradient>
</defs>
</svg>
